<?xml version="1.0" standalone="no"?>
<!DOCTYPE svg PUBLIC "-//W3C//DTD SVG 20010904//EN"
 "http://www.w3.org/TR/2001/REC-SVG-20010904/DTD/svg10.dtd">
<svg version="1.0" xmlns="http://www.w3.org/2000/svg"
 width="700.000000pt" height="700.000000pt" viewBox="0 0 700.000000 700.000000"
 preserveAspectRatio="xMidYMid meet">
<metadata>
Created by potrace 1.14, written by Peter Selinger 2001-2017
</metadata>
<g transform="translate(0.000000,700.000000) scale(0.100000,-0.100000)"
fill="#000000" stroke="none">
<path d="M1496 6374 c-126 -39 -181 -112 -249 -329 -52 -168 -62 -237 -62
-450 0 -155 4 -219 18 -283 l18 -82 -39 -53 c-125 -170 -215 -375 -268 -602
-23 -104 -28 -148 -32 -324 -12 -530 92 -950 319 -1292 86 -129 273 -315 404
-401 183 -121 433 -229 650 -282 l70 -17 3 -288 c2 -268 1 -289 -15 -296 -10
-4 -75 -10 -144 -13 -110 -4 -136 -2 -197 17 -141 43 -261 152 -427 387 -216
307 -300 401 -422 473 -179 105 -319 107 -432 5 -67 -60 -94 -120 -95 -209 -1
-124 54 -209 175 -270 82 -42 133 -97 268 -291 134 -191 198 -269 307 -374
113 -109 198 -169 315 -224 116 -55 220 -83 357 -96 97 -9 130 -8 263 6 l46 4
5 -137 c4 -112 8 -147 26 -185 34 -78 69 -115 140 -150 l67 -33 935 0 935 0
55 26 c70 33 116 79 149 149 l26 55 0 721 0 722 75 17 c217 51 469 160 655
283 135 89 318 272 408 408 207 312 303 669 314 1164 5 208 3 249 -15 355 -45
262 -146 508 -283 692 l-40 53 18 82 c26 120 25 448 -1 568 -21 97 -59 222
-89 295 -66 159 -160 215 -363 215 -247 0 -564 -108 -898 -304 l-96 -57 -97
20 c-483 96 -1017 96 -1500 0 l-102 -20 -95 56 c-234 137 -496 246 -686 285
-120 24 -301 26 -374 4z"/>
</g>
</svg>
